# xmcd
#
# Track frame offsets:
#	150
#	11534
#	23132
#	34128
#	46067
#	56437
#	69846
#	82095
#	95772
#	106783
#	118122
#	131293
#	143705
#	155968
#	168399
#
# Disc length: 2420 seconds
#
# Revision: 3
# Processed by: cddbd v1.5.2PL0 Copyright (c) Steve Scherf et al.
# Submitted via: audiograbber 1.83.01
#
DISCID=c009720f
DTITLE=Various Artist - Certified #1 Country Hits, cd 2
DYEAR=2011
DGENRE=Country
TTITLE0=Kitty Wells - Heartbreak USA
TTITLE1=George Jones - Your Tender Years
TTITLE2=Porter Wagoner - Misery Loves Company
TTITLE3=George Jones - She Thinks I Still Care
TTITLE4=Roger Miller - King Of The Road
TTITLE5=David Houston - Almost Persuaded
TTITLE6=Jack Greene - All The Time
TTITLE7=Jack Greene - You Are My Treasure
TTITLE8=Merle Haggard - Momma Tried
TTITLE9=Jack Greene - Until My Dreams Come True
TTITLE10=Jack Greene - Statue Of A Fool
TTITLE11=Merle Haggard - Working Man's Blues
TTITLE12=Merle Haggard - Okie From Muskogee
TTITLE13=Merle Haggard - The Fightin Side Of Me
TTITLE14=Dave Dudley - Pool Shark
EXTD=
EXTT0=
EXTT1=
EXTT2=
EXTT3=
EXTT4=
EXTT5=
EXTT6=
EXTT7=
EXTT8=
EXTT9=
EXTT10=
EXTT11=
EXTT12=
EXTT13=
EXTT14=
PLAYORDER=
